<svg width="144" height="150" viewBox="0 0 144 150" fill="none" xmlns="http://www.w3.org/2000/svg">
<line x1="4" y1="-4" x2="60.8978" y2="-4" transform="matrix(0.840803 0.541342 -0.605845 0.795583 4 47.9795)" stroke="#00CDF8" stroke-width="8" stroke-linecap="round"/>
<path d="M5.46582 110.7L59.0893 145.307" stroke="#00CDF8" stroke-width="8" stroke-linecap="round"/>
<path d="M59.4229 80.3811L139.358 38.7307" stroke="#00CDF8" stroke-width="8" stroke-linecap="round"/>
<path d="M59.7551 145.307L139.025 103.044" stroke="#00CDF8" stroke-width="8" stroke-linecap="round"/>
<path d="M4.7998 46.6932L86.0677 5.34908" stroke="#00CDF8" stroke-width="8" stroke-linecap="round"/>
<path d="M87.9795 4.80872L139.357 38.1182" stroke="#00CDF8" stroke-width="8" stroke-linecap="round"/>
<path d="M7.00299 46.6012L50.7633 51.8995" stroke="#00CDF8" stroke-width="8" stroke-linecap="round"/>
<path d="M51.4277 52.8183L59.4704 80.9009" stroke="#00CDF8" stroke-width="8" stroke-linecap="round"/>
<line x1="4" y1="-4" x2="22.1595" y2="-4" transform="matrix(0.279771 0.960067 -0.970964 0.239225 84.4014 5.65536)" stroke="#00CDF8" stroke-width="8" stroke-linecap="round"/>
<line x1="4" y1="-4" x2="43.782" y2="-4" transform="matrix(0.979199 0.202901 -0.238037 0.971256 91.7305 30.7681)" stroke="#00CDF8" stroke-width="8" stroke-linecap="round"/>
<path d="M92.4688 29.8014L51.4282 51.8995" stroke="#00CDF8" stroke-width="8" stroke-linecap="round"/>
<path d="M4.79969 47.3058L5.46582 110.394" stroke="#00CDF8" stroke-width="8" stroke-linecap="round"/>
<path d="M59.5557 81.9123L59.5557 145.307" stroke="#00CDF8" stroke-width="8" stroke-linecap="round"/>
<path d="M139.69 38.4244V102.738" stroke="#00CDF8" stroke-width="8" stroke-linecap="round"/>
</svg>
