<svg width="80" height="70" viewBox="0 0 80 70" fill="none" xmlns="http://www.w3.org/2000/svg">
<path opacity="0.729" fill-rule="evenodd" clip-rule="evenodd" d="M62.9497 3.23819C64.673 3.16606 65.4164 3.94691 65.1799 5.58071C64.5026 6.70014 63.5674 6.95276 62.3741 6.33858C61.2909 5.07852 61.4827 4.04506 62.9497 3.23819ZM63.0935 3.78937C64.3386 3.71864 64.8422 4.26982 64.6043 5.44291C64.284 6.04381 63.7805 6.2505 63.0935 6.06299C61.9518 5.30571 61.9518 4.54783 63.0935 3.78937Z" fill="#00CDF8"/>
<path opacity="0.739" fill-rule="evenodd" clip-rule="evenodd" d="M24.3885 4.34055C24.607 4.68786 24.8469 5.03235 25.1079 5.37401C25.5092 5.40727 25.8929 5.49913 26.259 5.6496C25.9952 5.90222 25.7314 6.15485 25.4676 6.40747C25.5394 6.82337 25.5154 7.23675 25.3957 7.64763C25.096 7.44663 24.7842 7.26289 24.4604 7.09645C24.0721 7.39053 23.6643 7.52833 23.2374 7.50984C23.3259 7.15993 23.4219 6.81544 23.5252 6.47637C23.2374 6.20078 22.9496 5.92519 22.6619 5.6496C23.0161 5.4821 23.3999 5.39023 23.8129 5.37401C24.0249 5.03674 24.2168 4.69225 24.3885 4.34055ZM24.3885 5.5807C24.5525 5.76003 24.7443 5.9208 24.964 6.06299C24.8594 6.25573 24.7875 6.46243 24.7482 6.68306C24.5564 6.49934 24.3645 6.49934 24.1727 6.68306C24.144 6.42091 24.024 6.21422 23.8129 6.06299C24.0422 5.93226 24.234 5.77149 24.3885 5.5807Z" fill="#00CDF8"/>
<path opacity="0.732" fill-rule="evenodd" clip-rule="evenodd" d="M71.4389 15.2264C70.8236 14.8913 70.224 14.5238 69.6403 14.124C68.939 14.4279 68.3156 14.8412 67.7698 15.3642C67.8882 14.676 68.0561 13.987 68.2734 13.2972C67.7194 12.7449 67.096 12.2626 66.4029 11.8504C67.2225 11.827 68.0377 11.7581 68.8489 11.6437C69.0718 10.9797 69.3356 10.3366 69.6403 9.71457C69.9007 10.3937 70.1166 11.0827 70.2878 11.7815C71.1045 11.7586 71.9199 11.7816 72.7338 11.8504C72.052 12.2681 71.4285 12.7504 70.8633 13.2972C71.1433 13.9179 71.3353 14.561 71.4389 15.2264ZM69.5684 11.5059C69.7465 11.7421 69.8425 12.0177 69.8561 12.3327C70.2427 12.3101 70.6265 12.333 71.0072 12.4016C70.6882 12.5764 70.4004 12.783 70.1439 13.0217C70.6265 13.937 70.4587 14.0748 69.6403 13.435C69.3164 13.5811 69.0046 13.6959 68.7051 13.7795C69.1738 13.151 69.0299 12.6917 68.2734 12.4016C69.0157 12.4764 69.4474 12.1779 69.5684 11.5059Z" fill="#00CDF8"/>
<path opacity="0.726" fill-rule="evenodd" clip-rule="evenodd" d="M13.5971 10.2658C15.4161 10.1934 16.2075 11.0202 15.9712 12.7461C15.2445 13.8816 14.2612 14.1344 13.0216 13.5039C11.9293 12.2003 12.1212 11.1209 13.5971 10.2658ZM13.741 10.8169C15.1305 10.7009 15.682 11.298 15.3957 12.6083C15.0234 13.2377 14.4718 13.4444 13.741 13.2283C12.5978 12.425 12.5978 11.6211 13.741 10.8169Z" fill="#00CDF8"/>
<path opacity="0.773" fill-rule="evenodd" clip-rule="evenodd" d="M43.3813 12.0571C45.5858 12.0784 46.7128 13.1349 46.7626 15.2264C46.6226 15.6782 46.4068 16.0916 46.1151 16.4665C46.7371 17.2458 47.4086 17.9806 48.1295 18.6713C48.5879 18.255 49.0676 17.8646 49.5684 17.5C49.6643 17.4081 49.7602 17.4081 49.8561 17.5C53.3025 21.3685 56.7317 25.2498 60.1439 29.1437C60.3294 29.358 60.4253 29.5876 60.4317 29.8327C59.9069 30.2203 59.4033 30.6337 58.9209 31.0728C59.5429 31.8521 60.2144 32.5869 60.9353 33.2776C62.4147 32.6388 63.6377 32.9604 64.6043 34.2421C65.2758 35.2067 65.2758 36.1713 64.6043 37.1358C60.9832 40.0526 57.3622 42.9691 53.741 45.8858C51.7676 46.8015 50.3528 46.2732 49.4964 44.3012C49.2776 43.4225 49.4934 42.6646 50.1439 42.0276C49.4925 41.3535 48.8931 40.6415 48.3453 39.8917C48.242 39.7607 48.1222 39.7378 47.9856 39.8228C47.519 40.2635 47.0154 40.6539 46.4748 40.9941C45.7571 40.192 45.0138 39.4111 44.2446 38.6516C36.6994 44.5678 29.2174 50.5619 21.7986 56.6339C19.3741 57.9976 17.2878 57.6073 15.5396 55.4626C13.3309 52.8912 13.5947 50.5716 16.331 48.504C23.4533 42.7854 30.5756 37.0669 37.6979 31.3484C37.7938 31.2565 37.7938 31.1648 37.6979 31.0728C36.994 30.3534 36.3465 29.5955 35.7554 28.7992C36.1262 28.2873 36.5819 27.8509 37.1223 27.4902C37.1676 27.2962 37.1197 27.1125 36.9784 26.939C36.4525 26.2976 35.877 25.7005 35.2518 25.1477C33.3784 25.8596 32.0356 25.3085 31.223 23.4941C30.9662 22.4874 31.2299 21.6377 32.0144 20.9449C35.3659 18.3327 38.6753 15.6686 41.9425 12.9528C42.3728 12.5603 42.8524 12.2617 43.3813 12.0571ZM43.5252 13.1595C44.6622 13.1903 45.3816 13.7414 45.6835 14.813C45.6158 15.1264 45.472 15.4019 45.2518 15.6398C41.7238 18.5364 38.1745 21.4071 34.6043 24.252C34.1727 24.5276 33.741 24.5276 33.3094 24.252C32.9439 23.9481 32.6321 23.6037 32.3741 23.2185C32.2781 22.897 32.2781 22.5754 32.3741 22.2539C36.0346 19.1383 39.7515 16.1068 43.5252 13.1595ZM45.1079 17.1555C45.7747 17.8176 46.4222 18.5066 47.0504 19.2225C47.1463 19.3144 47.1463 19.4061 47.0504 19.498C44.1833 21.8013 41.3295 24.1208 38.4892 26.4567C38.3453 26.5486 38.2015 26.5486 38.0576 26.4567C37.4341 25.7677 36.8105 25.0788 36.1871 24.3898C39.1882 21.997 42.1617 19.5855 45.1079 17.1555ZM49.4245 18.9469C49.6937 18.9963 49.9095 19.1341 50.072 19.3602C53.0486 22.7391 55.9983 26.138 58.9209 29.5571C54.8448 32.886 50.744 36.193 46.6187 39.4784C43.4981 35.9618 40.4046 32.425 37.3381 28.8681C41.4121 25.6095 45.4409 22.3025 49.4245 18.9469ZM57.9137 31.7618C58.5804 32.4239 59.2279 33.1129 59.8561 33.8288C59.9639 33.9852 59.94 34.1229 59.7842 34.2421C56.8958 36.6011 53.9941 38.9436 51.0791 41.2697C50.3222 40.5501 49.6987 39.7692 49.2086 38.9272C52.134 36.5526 55.0357 34.1641 57.9137 31.7618ZM38.3453 32.1752C38.5144 32.145 38.6583 32.1909 38.777 32.313C40.2056 33.9922 41.6685 35.6457 43.1655 37.2736C43.3068 37.4471 43.3547 37.6308 43.3094 37.8248C35.9472 43.773 28.5852 49.7211 21.223 55.6693C20.0107 56.4404 18.7638 56.4863 17.482 55.8071C16.6769 55.0364 15.9813 54.1866 15.3957 53.2579C15.077 52.3465 15.1728 51.4737 15.6835 50.6398C23.2649 44.5036 30.8189 38.3487 38.3453 32.1752ZM62.0863 33.9665C63.4865 34.2241 64.0381 35.005 63.741 36.3091C60.256 39.2288 56.7308 42.0995 53.1655 44.9213C51.993 45.5442 51.1537 45.2456 50.6475 44.0256C50.5406 43.5732 50.6366 43.1598 50.9353 42.7854C54.6013 39.7597 58.3184 36.82 62.0863 33.9665Z" fill="#00CDF8"/>
<path opacity="0.404" fill-rule="evenodd" clip-rule="evenodd" d="M71.4388 15.2264C71.6306 15.3183 71.6306 15.3183 71.4388 15.2264V15.2264Z" fill="#00CDF8"/>
<path opacity="0.735" fill-rule="evenodd" clip-rule="evenodd" d="M9.13672 19.7736C9.49312 20.1785 9.78089 20.6377 10 21.1516C10.6252 21.3124 11.2487 21.4732 11.8705 21.6339C11.4202 21.9271 11.0125 22.2716 10.6475 22.6673C10.6336 23.177 10.7056 23.6823 10.8633 24.1831C10.8154 24.275 10.7674 24.3668 10.7195 24.4587C10.2246 24.2102 9.72099 23.9805 9.20866 23.7697C8.76908 23.9228 8.36141 24.1295 7.98564 24.3898C7.84175 24.4817 7.69787 24.4817 7.55398 24.3898C7.75883 23.8324 7.83077 23.2582 7.76981 22.6673C7.4101 22.3228 7.05039 21.9783 6.69067 21.6339C7.24571 21.4584 7.82125 21.3206 8.41729 21.2205C8.71647 20.7624 8.95627 20.2802 9.13672 19.7736ZM9.13672 21.0138C9.37824 21.2205 9.57008 21.4731 9.71226 21.7717C10.631 21.7699 10.7509 22.0224 10.072 22.5295C10.4159 23.547 10.1521 23.7307 9.2806 23.0807C9.00529 23.201 8.74151 23.3388 8.48923 23.4941C8.3904 23.2091 8.41439 22.9335 8.56118 22.6673C8.36934 22.4376 8.17748 22.2081 7.98564 21.9783C8.6679 21.9636 9.05159 21.642 9.13672 21.0138Z" fill="#00CDF8"/>
<path opacity="0.802" fill-rule="evenodd" clip-rule="evenodd" d="M70.4316 20.3248C70.6715 20.3248 70.9112 20.3248 71.1511 20.3248C71.1748 20.7864 71.1508 21.2457 71.0791 21.7028C70.8873 21.8864 70.6954 21.8864 70.5036 21.7028C70.4319 21.2457 70.4079 20.7864 70.4316 20.3248Z" fill="#02C8FB"/>
<path opacity="0.766" fill-rule="evenodd" clip-rule="evenodd" d="M70.5755 23.2185C70.7657 23.1951 70.9336 23.241 71.0791 23.3563C71.1508 23.8134 71.1748 24.2726 71.1511 24.7342C70.9112 24.7342 70.6715 24.7342 70.4316 24.7342C70.3948 24.2149 70.4427 23.7096 70.5755 23.2185Z" fill="#02C9FA"/>
<path opacity="0.802" fill-rule="evenodd" clip-rule="evenodd" d="M70.5755 26.1122C70.7657 26.0888 70.9336 26.1347 71.0791 26.25C71.1508 26.7071 71.1748 27.1663 71.1511 27.6279C70.9112 27.6279 70.6715 27.6279 70.4316 27.6279C70.3948 27.1086 70.4427 26.6033 70.5755 26.1122Z" fill="#02C8FB"/>
<path opacity="0.802" fill-rule="evenodd" clip-rule="evenodd" d="M70.4316 29.1437C70.6715 29.1437 70.9112 29.1437 71.1511 29.1437C71.1748 29.6053 71.1508 30.0646 71.0791 30.5217C70.8873 30.7053 70.6954 30.7053 70.5036 30.5217C70.4319 30.0646 70.4079 29.6053 70.4316 29.1437Z" fill="#02C8FB"/>
<path opacity="0.722" fill-rule="evenodd" clip-rule="evenodd" d="M70.4317 34.1043C71.8915 34.1488 72.4432 34.8378 72.0863 36.1713C71.5252 36.8648 70.8298 37.0256 70 36.6535C68.9816 35.618 69.1255 34.7682 70.4317 34.1043ZM70.4317 34.6555C71.4475 34.5487 71.8072 34.9621 71.5108 35.8957C70.9248 36.4633 70.3971 36.4172 69.9281 35.7579C69.8243 35.2682 69.9922 34.9008 70.4317 34.6555Z" fill="#00CCF8"/>
<path opacity="0.724" fill-rule="evenodd" clip-rule="evenodd" d="M7.98562 47.1949C8.17746 47.1949 8.36932 47.1949 8.56116 47.1949C8.64764 47.8024 8.40782 47.9861 7.84174 47.7461C7.94905 47.5758 7.99702 47.3919 7.98562 47.1949Z" fill="#00CCF9"/>
<path opacity="0.731" fill-rule="evenodd" clip-rule="evenodd" d="M69.5684 48.1595C69.7927 48.4499 69.9845 48.7714 70.1439 49.124C70.5564 49.2996 70.9881 49.4144 71.4389 49.4685C71.1751 49.7211 70.9113 49.9738 70.6475 50.2264C70.6927 50.6461 70.6687 51.0595 70.5756 51.4665C69.8495 50.9229 69.154 50.969 68.4892 51.6043C68.5423 51.151 68.5423 50.6917 68.4892 50.2264C68.2255 49.9738 67.9616 49.7211 67.6979 49.4685C68.1337 49.3942 68.5654 49.3023 68.9928 49.1929C69.2048 48.8556 69.3967 48.5111 69.5684 48.1595ZM69.5684 49.3996C69.6858 49.6261 69.8777 49.7868 70.1439 49.8819C70.059 50.0898 69.9632 50.2965 69.8562 50.502C69.6806 50.3351 69.5127 50.3351 69.3526 50.502C69.3133 50.2499 69.1933 50.0433 68.9928 49.8819C69.2878 49.8246 69.4797 49.6638 69.5684 49.3996Z" fill="#00CDF8"/>
<path opacity="0.781" fill-rule="evenodd" clip-rule="evenodd" d="M52.7338 48.8484C54.4131 48.8254 56.0918 48.8484 57.7697 48.9173C58.7542 49.1702 59.2338 49.7902 59.2086 50.7775C61.7141 50.7441 62.8172 51.9383 62.5179 54.3602C63.3813 54.3602 64.2446 54.3602 65.1079 54.3602C65.1079 55.4167 65.1079 56.473 65.1079 57.5295C58.5369 57.5525 51.9662 57.5295 45.3957 57.4606C45.2308 56.4842 45.2069 55.4966 45.3237 54.498C46.198 54.3635 47.0851 54.3175 47.9856 54.3602C47.5807 51.8554 48.6839 50.6611 51.2949 50.7775C51.2182 49.7238 51.6978 49.0809 52.7338 48.8484ZM52.5899 50.0886C54.3644 50.0886 56.1391 50.0886 57.9136 50.0886C57.9136 50.3183 57.9136 50.5478 57.9136 50.7775C56.091 50.7775 54.2686 50.7775 52.446 50.7775C52.4267 50.5306 52.4746 50.3011 52.5899 50.0886ZM49.8561 51.8799C53.4056 51.8569 56.9548 51.8799 60.5036 51.9488C60.8154 52.0636 61.0312 52.2703 61.151 52.5689C61.2228 53.1643 61.2469 53.7614 61.223 54.3602C57.1942 54.3602 53.1654 54.3602 49.1367 54.3602C49.1128 53.7614 49.1368 53.1643 49.2086 52.5689C49.4051 52.3123 49.621 52.0827 49.8561 51.8799ZM46.5467 55.4626C52.35 55.4626 58.1535 55.4626 63.9568 55.4626C63.9568 55.7382 63.9568 56.0138 63.9568 56.2894C58.1535 56.2894 52.35 56.2894 46.5467 56.2894C46.5467 56.0138 46.5467 55.7382 46.5467 55.4626Z" fill="#00CCF9"/>
<path opacity="0.759" fill-rule="evenodd" clip-rule="evenodd" d="M7.69781 49.3996C7.88966 49.3996 8.08151 49.3996 8.27335 49.3996C8.27335 49.8589 8.27335 50.3183 8.27335 50.7775C8.08151 50.7775 7.88966 50.7775 7.69781 50.7775C7.69781 50.3183 7.69781 49.8589 7.69781 49.3996Z" fill="#00CDF8"/>
<path opacity="0.663" fill-rule="evenodd" clip-rule="evenodd" d="M8.12951 52.1555C8.30933 52.1661 8.42923 52.258 8.48922 52.4311C8.58936 52.8415 8.66131 53.2549 8.70505 53.6713C8.5132 53.6713 8.32135 53.6713 8.12951 53.6713C8.07041 53.2506 7.97448 52.8372 7.84174 52.4311C7.9486 52.3371 8.04453 52.2452 8.12951 52.1555Z" fill="#00CCF8"/>
<path opacity="0.711" fill-rule="evenodd" clip-rule="evenodd" d="M8.99282 54.9114C9.26306 55.2897 9.50288 55.703 9.71224 56.1516C9.65657 56.3197 9.53668 56.4116 9.35253 56.4272C8.81302 55.9683 8.69312 55.463 8.99282 54.9114Z" fill="#00CDF8"/>
<path opacity="0.646" fill-rule="evenodd" clip-rule="evenodd" d="M71.1511 55.3248C71.3429 55.3248 71.5348 55.3248 71.7266 55.3248C71.7266 55.6004 71.7266 55.876 71.7266 56.1516C71.2132 56.1159 71.0215 55.8403 71.1511 55.3248Z" fill="#00CCF8"/>
<path opacity="0.712" fill-rule="evenodd" clip-rule="evenodd" d="M10.2878 57.5295C10.6426 57.8382 10.9303 58.2057 11.1511 58.6319C11.1031 58.7697 11.0072 58.8616 10.8633 58.9075C10.2326 58.5388 10.0408 58.0793 10.2878 57.5295Z" fill="#00CDF8"/>
<path opacity="0.715" fill-rule="evenodd" clip-rule="evenodd" d="M70.7194 57.6673C70.9112 57.6673 71.1032 57.6673 71.295 57.6673C71.2298 58.2451 71.062 58.7963 70.7914 59.3209C70.6108 59.2229 70.443 59.1081 70.2878 58.9764C70.5617 58.5799 70.7056 58.1435 70.7194 57.6673Z" fill="#00CDF8"/>
<path opacity="0.754" fill-rule="evenodd" clip-rule="evenodd" d="M12.0144 59.872C12.4308 60.0625 12.7905 60.3381 13.0935 60.6988C13.1654 60.9974 13.0456 61.1122 12.7338 61.0433C12.47 60.7907 12.2062 60.538 11.9424 60.2854C11.8749 60.137 11.8988 59.9992 12.0144 59.872Z" fill="#00CDF8"/>
<path opacity="0.697" fill-rule="evenodd" clip-rule="evenodd" d="M69.4245 60.561C69.6551 60.5351 69.8471 60.604 70 60.7677C69.7269 61.2667 69.3672 61.7031 68.9209 62.0768C68.801 61.962 68.681 61.8471 68.5612 61.7323C68.8806 61.3585 69.1684 60.9681 69.4245 60.561Z" fill="#00CDF8"/>
<path opacity="0.705" fill-rule="evenodd" clip-rule="evenodd" d="M14.3165 61.6634C14.7656 61.9318 15.1972 62.2304 15.6115 62.5591C15.323 62.9177 14.9873 62.9177 14.6043 62.5591C14.4531 62.3682 14.2613 62.2304 14.0287 62.1457C14.1446 61.9923 14.2405 61.8316 14.3165 61.6634Z" fill="#00CDF8"/>
<path opacity="0.731" fill-rule="evenodd" clip-rule="evenodd" d="M23.9569 62.7657C25.116 62.7039 25.8593 63.2092 26.1871 64.2815C26.0527 66.0123 25.1174 66.5864 23.3813 66.0039C22.1209 64.6685 22.3127 63.5892 23.9569 62.7657ZM24.1007 63.3169C25.3249 63.3628 25.7806 63.9599 25.4676 65.1083C25.0425 65.6287 24.491 65.7894 23.813 65.5905C22.8763 64.7195 22.9722 63.9617 24.1007 63.3169Z" fill="#00CCF9"/>
<path opacity="0.705" fill-rule="evenodd" clip-rule="evenodd" d="M67.2662 62.7657C67.5462 62.8696 67.666 63.0535 67.6259 63.3169C67.2334 63.6465 66.8017 63.9221 66.3309 64.1437C66.1345 63.9931 66.0865 63.8094 66.187 63.5925C66.5962 63.3639 66.956 63.0883 67.2662 62.7657Z" fill="#00CCF8"/>
<path opacity="0.704" fill-rule="evenodd" clip-rule="evenodd" d="M16.9065 63.1791C17.3246 63.3565 17.7563 63.4943 18.2015 63.5925C18.2015 63.7762 18.2015 63.96 18.2015 64.1437C17.743 64.0893 17.3114 63.9515 16.9065 63.7303C16.7445 63.5501 16.7445 63.3663 16.9065 63.1791Z" fill="#00CDF8"/>
<path opacity="0.689" fill-rule="evenodd" clip-rule="evenodd" d="M19.6403 64.1437C20.2746 64.0609 20.4664 64.2906 20.2158 64.8327C20.038 64.7299 19.846 64.684 19.6403 64.6949C19.6403 64.5112 19.6403 64.3274 19.6403 64.1437Z" fill="#00CDF8"/>
<path opacity="0.692" fill-rule="evenodd" clip-rule="evenodd" d="M64.1007 64.4193C64.2925 64.4193 64.4845 64.4193 64.6763 64.4193C64.6763 64.603 64.6763 64.7868 64.6763 64.9705C64.1589 65.0668 63.6553 65.2046 63.1655 65.3838C63.121 65.2094 63.0491 65.0486 62.9496 64.9016C63.3426 64.7401 63.7263 64.5793 64.1007 64.4193Z" fill="#00CCF8"/>
<path opacity="0.682" fill-rule="evenodd" clip-rule="evenodd" d="M60.6475 64.9705C60.8873 64.9705 61.127 64.9705 61.3669 64.9705C61.3669 65.1541 61.3669 65.338 61.3669 65.5216C61.127 65.5216 60.8873 65.5216 60.6475 65.5216C60.6475 65.338 60.6475 65.1541 60.6475 64.9705Z" fill="#00CDF8"/>
</svg>
