<svg width="155" height="151" viewBox="0 0 155 151" fill="none" xmlns="http://www.w3.org/2000/svg">
<path d="M139.121 72.0984C139.121 109.158 109.095 139.197 72.0606 139.197C35.0265 139.197 5 109.158 5 72.0984C5 35.0385 35.0265 5 72.0606 5C109.095 5 139.121 35.0385 139.121 72.0984Z" stroke="#00CDF8" stroke-width="10"/>
<path d="M150.21 126.893C150.21 127.583 149.912 128.542 148.763 129.749C147.595 130.978 145.715 132.266 143.087 133.435C137.84 135.768 130.311 137.313 121.783 137.313C113.254 137.313 105.725 135.768 100.478 133.435C97.85 132.266 95.9704 130.978 94.8021 129.749C93.6533 128.542 93.3555 127.583 93.3555 126.893C93.3555 126.203 93.6533 125.245 94.8021 124.037C95.9704 122.809 97.85 121.521 100.478 120.352C105.725 118.019 113.254 116.474 121.783 116.474C130.311 116.474 137.84 118.019 143.087 120.352C145.715 121.521 147.595 122.809 148.763 124.037C149.912 125.245 150.21 126.203 150.21 126.893Z" fill="white" stroke="#00CDF8" stroke-width="8"/>
<path d="M150.21 112.474C150.21 113.164 149.912 114.122 148.763 115.33C147.595 116.558 145.715 117.846 143.087 119.015C137.84 121.348 130.311 122.893 121.783 122.893C113.254 122.893 105.725 121.348 100.478 119.015C97.85 117.846 95.9704 116.558 94.8021 115.33C93.6533 114.122 93.3555 113.164 93.3555 112.474C93.3555 111.783 93.6533 110.825 94.8021 109.618C95.9704 108.389 97.85 107.101 100.478 105.932C105.725 103.599 113.254 102.054 121.783 102.054C130.311 102.054 137.84 103.599 143.087 105.932C145.715 107.101 147.595 108.389 148.763 109.618C149.912 110.825 150.21 111.783 150.21 112.474Z" fill="white" stroke="#00CDF8" stroke-width="8"/>
<path d="M150.21 97.3329C150.21 98.023 149.912 98.9812 148.763 100.189C147.595 101.417 145.715 102.705 143.087 103.874C137.84 106.207 130.311 107.753 121.783 107.753C113.254 107.753 105.725 106.207 100.478 103.874C97.85 102.705 95.9704 101.417 94.8021 100.189C93.6533 98.9812 93.3555 98.023 93.3555 97.3329C93.3555 96.6427 93.6533 95.6846 94.8021 94.4769C95.9704 93.2485 97.85 91.9603 100.478 90.7915C105.725 88.4584 113.254 86.9132 121.783 86.9132C130.311 86.9132 137.84 88.4584 143.087 90.7915C145.715 91.9603 147.595 93.2485 148.763 94.4769C149.912 95.6846 150.21 96.6427 150.21 97.3329Z" fill="white" stroke="#00CDF8" stroke-width="8"/>
<rect x="89.3555" y="10.0938" width="54.7661" height="23.7925" fill="white"/>
<line x1="101.56" y1="20.2344" x2="134.796" y2="20.2344" stroke="#00CDF8" stroke-width="10" stroke-linecap="round"/>
<path d="M82.7048 39.9149C85.3048 39.9149 87.7381 40.4149 90.0048 41.4149C92.2715 42.3482 94.2048 43.6482 95.8048 45.3149C97.4715 46.9816 98.7715 48.9482 99.7048 51.2149C100.705 53.4816 101.205 55.8816 101.205 58.4149V61.4149C101.205 63.9482 100.705 66.3482 99.7048 68.6149C98.7715 70.8149 97.4715 72.7816 95.8048 74.5149C94.2048 76.1816 92.2715 77.4816 90.0048 78.4149C87.7381 79.3482 85.3048 79.8149 82.7048 79.8149H65.5048V108.015H53.5048V39.9149H82.7048ZM65.5048 51.8149V67.9149H80.7048C83.5715 67.9149 85.6715 67.2149 87.0048 65.8149C88.3381 64.4149 89.0048 62.4482 89.0048 59.9149C89.0048 57.5149 88.3381 55.5816 87.0048 54.1149C85.6715 52.5816 83.5715 51.8149 80.7048 51.8149H65.5048Z" fill="#00CDF8"/>
</svg>
