<svg width="155" height="151" viewBox="0 0 155 151" fill="none" xmlns="http://www.w3.org/2000/svg">
<circle cx="72.0588" cy="72.0588" r="67.0588" stroke="#00CDF8" stroke-width="10"/>
<path d="M150.206 126.824C150.206 127.512 149.909 128.469 148.761 129.676C147.592 130.903 145.713 132.191 143.084 133.359C137.837 135.691 130.309 137.235 121.78 137.235C113.251 137.235 105.722 135.691 100.476 133.359C97.8471 132.191 95.9676 130.903 94.7993 129.676C93.6507 128.469 93.3535 127.512 93.3535 126.824C93.3535 126.135 93.6507 125.178 94.7993 123.971C95.9676 122.744 97.8471 121.456 100.476 120.288C105.722 117.956 113.251 116.412 121.78 116.412C130.309 116.412 137.837 117.956 143.084 120.288C145.713 121.456 147.592 122.744 148.761 123.971C149.909 125.178 150.206 126.135 150.206 126.824Z" fill="white" stroke="#00CDF8" stroke-width="8"/>
<path d="M150.206 112.412C150.206 113.1 149.909 114.057 148.761 115.264C147.592 116.492 145.713 117.779 143.084 118.947C137.837 121.279 130.309 122.824 121.78 122.824C113.251 122.824 105.722 121.279 100.476 118.947C97.8471 117.779 95.9676 116.492 94.7993 115.264C93.6507 114.057 93.3535 113.1 93.3535 112.412C93.3535 111.723 93.6507 110.767 94.7993 109.56C95.9676 108.332 97.8471 107.045 100.476 105.876C105.722 103.544 113.251 102 121.78 102C130.309 102 137.837 103.544 143.084 105.876C145.713 107.045 147.592 108.332 148.761 109.56C149.909 110.767 150.206 111.723 150.206 112.412Z" fill="white" stroke="#00CDF8" stroke-width="8"/>
<path d="M150.206 97.2794C150.206 97.9678 149.909 98.9247 148.761 100.132C147.592 101.359 145.713 102.647 143.084 103.815C137.837 106.147 130.309 107.691 121.78 107.691C113.251 107.691 105.722 106.147 100.476 103.815C97.8471 102.647 95.9676 101.359 94.7993 100.132C93.6507 98.9247 93.3535 97.9678 93.3535 97.2794C93.3535 96.5911 93.6507 95.6342 94.7993 94.4273C95.9676 93.1997 97.8471 91.9123 100.476 90.744C105.722 88.4121 113.251 86.8677 121.78 86.8677C130.309 86.8677 137.837 88.4121 143.084 90.744C145.713 91.9123 147.592 93.1997 148.761 94.4273C149.909 95.6342 150.206 96.5911 150.206 97.2794Z" fill="white" stroke="#00CDF8" stroke-width="8"/>
<rect x="94" y="2.55884" width="53" height="36" fill="white"/>
<line x1="111.648" y1="5" x2="111.648" y2="38.2353" stroke="#00CDF8" stroke-width="10" stroke-linecap="round"/>
<line x1="95.6338" y1="21.2206" x2="128.869" y2="21.2206" stroke="#00CDF8" stroke-width="10" stroke-linecap="round"/>
<path d="M79.7041 39.9882C82.3041 39.9882 84.7374 40.4882 87.0041 41.4882C89.2707 42.4216 91.2041 43.7216 92.8041 45.3882C94.4707 47.0549 95.7707 49.0216 96.7041 51.2882C97.7041 53.5549 98.2041 55.9549 98.2041 58.4882V61.4882C98.2041 64.0216 97.7041 66.4216 96.7041 68.6882C95.7707 70.8882 94.4707 72.8549 92.8041 74.5882C91.2041 76.2549 89.2707 77.5549 87.0041 78.4882C84.7374 79.4216 82.3041 79.8882 79.7041 79.8882H62.5041V108.088H50.5041V39.9882H79.7041ZM62.5041 51.8882V67.9882H77.7041C80.5707 67.9882 82.6707 67.2882 84.0041 65.8882C85.3374 64.4882 86.0041 62.5216 86.0041 59.9882C86.0041 57.5882 85.3374 55.6549 84.0041 54.1882C82.6707 52.6549 80.5707 51.8882 77.7041 51.8882H62.5041Z" fill="#00CDF8"/>
</svg>
